<svg xmlns="http://www.w3.org/2000/svg" viewBox="0 0 48 43.71"><defs><style>.cls-1{fill:#1e0f00;}</style></defs><title>Asset 91</title><g id="Layer_2" data-name="Layer 2"><g id="_1" data-name="1"><path class="cls-1" d="M40.71,43.71l-1.42-1.42A21.68,21.68,0,0,0,46,27a21.68,21.68,0,0,0-6.71-15.29l1.42-1.42A23.73,23.73,0,0,1,48,27,23.73,23.73,0,0,1,40.71,43.71Z"/><path class="cls-1" d="M7.29,43.71A23.73,23.73,0,0,1,0,27,23.73,23.73,0,0,1,7.29,10.29l1.42,1.42A21.68,21.68,0,0,0,2,27,21.68,21.68,0,0,0,8.71,42.29Z"/><path class="cls-1" d="M10.27,39.73a18,18,0,0,1,0-25.46l1.42,1.42a16,16,0,0,0,0,22.62Z"/><path class="cls-1" d="M37.73,39.73l-1.42-1.42a16,16,0,0,0,0-22.62l1.42-1.42a18,18,0,0,1,0,25.46Z"/><path class="cls-1" d="M28,7H26V4a2,2,0,0,0-4,0V7H20V4a4,4,0,0,1,8,0Z"/><path class="cls-1" d="M37,30H11a1,1,0,0,1,0-2,3,3,0,0,0,3-3V14a8,8,0,0,1,8-8h4a8,8,0,0,1,8,8V25a3,3,0,0,0,3,3,1,1,0,0,1,0,2ZM15,28H33a5,5,0,0,1-1-3V14a6,6,0,0,0-6-6H22a6,6,0,0,0-6,6V25A5,5,0,0,1,15,28Z"/><path class="cls-1" d="M24,35a8.75,8.75,0,0,1-7.92-5.6,1,1,0,0,1,.08-.95A1,1,0,0,1,17,28H31a1,1,0,0,1,.84.45,1,1,0,0,1,.08.95A8.75,8.75,0,0,1,24,35Zm-5.32-5A6.47,6.47,0,0,0,24,33a6.47,6.47,0,0,0,5.32-3Z"/><rect class="cls-1" x="27" y="14" width="2" height="11"/></g></g></svg>