<svg xmlns="http://www.w3.org/2000/svg" viewBox="0 0 32 32"><title>44-Alarm</title><g id="_44-Alarm" data-name="44-Alarm"><path d="M31.89,27.55l-2-4A1,1,0,0,0,29,23H28V15H26v8H15v2H28.38l1,2H11v2h1.14a4,4,0,0,0,7.72,0H31a1,1,0,0,0,.89-1.45Z"/><path d="M5,25a1,1,0,0,0,1-1V15A10.25,10.25,0,0,1,14.18,5,1,1,0,0,0,15,4V2h2V4a1,1,0,0,0,.82,1,9.56,9.56,0,0,1,2.72.95l.93-1.77A11.54,11.54,0,0,0,19,3.2V2a2,2,0,0,0-2-2H15a2,2,0,0,0-2,2V3.2A12.31,12.31,0,0,0,4,15v8H3a1,1,0,0,0-.89.55l-1,2,1.79.89L3.62,25Z"/><path d="M9,14h2c0-3.83,2.7-4,3-4V8C12.27,8,9,9.25,9,14Z"/><rect x="-0.76" y="17.5" width="32.53" height="2" transform="translate(-8.54 16.38) rotate(-45)"/></g></svg>